<svg xmlns="http://www.w3.org/2000/svg" version="1.1" xmlns:xlink="http://www.w3.org/1999/xlink" width="512" height="512" x="0" y="0" viewBox="0 0 64 64" style="enable-background:new 0 0 512 512" xml:space="preserve" class=""><g><g data-name="22-CT-scan"><path fill="#e4ebf0" d="M36 49h12v8H36zM22 44h39v5H22z" opacity="1" data-original="#e4ebf0" class=""></path><path fill="#b4d7f0" d="M36 49h5v8h-5zM22 44h5v5h-5z" opacity="1" data-original="#b4d7f0"></path><path fill="#ffe1b2" d="M31 40a4 4 0 0 1-4 4 3.493 3.493 0 0 1-.65-.06 3.994 3.994 0 0 1 .43-7.93A1.62 1.62 0 0 1 27 36a4 4 0 0 1 4 4z" opacity="1" data-original="#ffe1b2"></path><path fill="#3896d2" d="M56 44H31v-6h19a6 6 0 0 1 6 6z" opacity="1" data-original="#3896d2"></path><path fill="#ffcd7f" d="M28.5 43.7a3.756 3.756 0 0 1-1.5.3 3.493 3.493 0 0 1-.65-.06 3.994 3.994 0 0 1 .43-7.93A1.62 1.62 0 0 1 27 36a3.707 3.707 0 0 1 1.49.3 3.991 3.991 0 0 0 .01 7.4z" opacity="1" data-original="#ffcd7f"></path><path fill="#0e86d2" d="M31 38h6v6h-6z" opacity="1" data-original="#0e86d2"></path><path fill="#e4ebf0" d="M10 39a24.179 24.179 0 0 0 2.5 11h-7c0-.01-.01-.02-.02-.03-.15-.31-.3-.63-.45-.95l-.12-.27c-.16-.38-.32-.77-.46-1.17-.16-.43-.3-.86-.43-1.31q-.18-.6-.33-1.23c-.06-.27-.12-.55-.18-.83q-.135-.66-.24-1.35c-.04-.34-.09-.69-.12-1.04-.02-.18-.04-.35-.05-.53-.07-.75-.1-1.51-.1-2.29 0-9.94 5.37-18 12-18h7c-6.63 0-12 8.06-12 18z" opacity="1" data-original="#e4ebf0" class=""></path><path fill="#d94736" d="M22 49h9.98c-2.15 4.82-5.82 8-9.98 8-3.87 0-7.3-2.74-9.5-7h.5l5-5c.91 2.43 2.37 4 4 4z" opacity="1" data-original="#d94736"></path><path fill="#d9200b" d="M23.98 56.74A7.323 7.323 0 0 1 22 57c-3.87 0-7.3-2.74-9.5-7h.5l5-5a8.807 8.807 0 0 0 1.43 2.57l-2.75 2.75c1.79 3.33 4.36 5.68 7.3 6.42z" opacity="1" data-original="#d9200b"></path><path fill="#e4ebf0" d="M12.5 50A24.179 24.179 0 0 1 10 39c0-9.94 5.37-18 12-18 6.41 0 11.64 7.53 11.98 17H31v2a4 4 0 0 0-4-4 1.62 1.62 0 0 0-.22.01C26.14 31.95 24.24 29 22 29c-2.76 0-5 4.48-5 10a17.284 17.284 0 0 0 1 6l-5 5z" opacity="1" data-original="#e4ebf0" class=""></path><path fill="#b4d7f0" d="M7 39a24.179 24.179 0 0 0 2.5 11h-4c0-.01-.01-.02-.02-.03-.15-.31-.3-.63-.45-.95l-.12-.27c-.16-.38-.32-.77-.46-1.17-.16-.43-.3-.86-.43-1.31q-.18-.6-.33-1.23c-.06-.27-.12-.55-.18-.83q-.135-.66-.24-1.35c-.04-.34-.09-.69-.12-1.04-.02-.18-.04-.35-.05-.53-.07-.75-.1-1.51-.1-2.29 0-9.94 5.37-18 12-18h4c-6.63 0-12 8.06-12 18z" opacity="1" data-original="#b4d7f0"></path><path fill="#b4d7f0" d="M14 39a25.27 25.27 0 0 0 1.44 8.56L13 50h-.5A24.179 24.179 0 0 1 10 39c0-9.94 5.37-18 12-18a8.447 8.447 0 0 1 2.01.25C18.33 22.67 14 30.08 14 39z" opacity="1" data-original="#b4d7f0"></path><path fill="#d94736" d="M22 57h-7c-3.8 0-7.19-2.65-9.39-6.79-.04-.07-.07-.14-.11-.21h7c2.2 4.26 5.63 7 9.5 7z" opacity="1" data-original="#d94736"></path><path fill="#d9200b" d="M19 57h-4c-3.8 0-7.19-2.65-9.39-6.79-.04-.07-.07-.14-.11-.21h4c.04.07.07.14.11.21C11.81 54.35 15.2 57 19 57z" opacity="1" data-original="#d9200b"></path><rect width="23" height="18" x="34" y="7" fill="#e4ebf0" rx="2" opacity="1" data-original="#e4ebf0" class=""></rect><path fill="#b4d7f0" d="M42 25h-6a2.006 2.006 0 0 1-2-2V9a2.006 2.006 0 0 1 2-2h6a2.006 2.006 0 0 0-2 2v14a2.006 2.006 0 0 0 2 2z" opacity="1" data-original="#b4d7f0"></path><g fill="#062d42"><path d="M61 50a1 1 0 0 0 1-1v-5a1 1 0 0 0-1-1h-4.08A7 7 0 0 0 50 37H34.913C34.236 27.4 28.7 20 22 20h-7C7.83 20 2 28.52 2 39c0 7.447 2.951 13.886 7.227 17H2v2h60v-2H49v-6zm-1-2H23v-3h37zm-38 8c-3.2 0-6.07-2.131-8.081-5.505l3.775-3.775C18.777 48.752 20.3 50 22 50h8.37c-2.09 3.79-5.14 6-8.37 6zm5-13a2.146 2.146 0 0 1-.49-.05 2.992 2.992 0 0 1 .32-5.94c.03 0 .14-.01.17-.01a3 3 0 0 1 0 6zm-5-3a4.972 4.972 0 0 0 1.014 3H22a1 1 0 0 0-1 1v3.67c-1.56-1.01-3-4.29-3-8.67 0-5.3 2.11-9 4-9 1.48 0 2.93 2.13 3.61 5.2.03-.01.06-.01.09-.02A4.989 4.989 0 0 0 22 40zm32.9 3H32v-4h18a5.008 5.008 0 0 1 4.9 4zm-21.98-6H30.979a4.935 4.935 0 0 0-3.359-1.95C26.76 30.74 24.59 28 22 28c-3.36 0-6 4.83-6 11a18.523 18.523 0 0 0 .86 5.726l-3.912 3.912A23.786 23.786 0 0 1 11 39c0-9.37 4.93-17 11-17 5.61 0 10.28 6.51 10.92 15zM15 22h1.227C11.951 25.114 9 31.553 9 39a25.641 25.641 0 0 0 1.966 10H6.124A23.553 23.553 0 0 1 4 39c0-9.37 4.93-17 11-17zm0 34c-3.039 0-5.792-1.914-7.784-5h4.715a15.434 15.434 0 0 0 4.3 5zm17.608-6H35v6h-7.177a15.852 15.852 0 0 0 4.785-6zM47 56H37v-6h10z" fill="#062d42" opacity="1" data-original="#062d42"></path><path d="M20 24h4v2h-4zM12 38h3v2h-3zM39 52h6v2h-6zM62 17h-4V9a3 3 0 0 0-3-3H36a3 3 0 0 0-3 3v5h-4v2h4v7a3 3 0 0 0 3 3h19a3 3 0 0 0 3-3v-4h4zM35 9a1 1 0 0 1 1-1h19a1 1 0 0 1 1 1v8h-.382L53.9 13.553a1 1 0 0 0-1.844.131l-1.356 4.06-.866-1.3A1 1 0 0 0 49 16h-1.323l-1.748-4.372a1 1 0 0 0-1.909.176l-1.17 5.846-1.885-6.913A1 1 0 0 0 40 10h-.011a1 1 0 0 0-.959.757l-1.344 5.378-.786-1.582A1 1 0 0 0 36 14h-1zm21 14a1 1 0 0 1-1 1H36a1 1 0 0 1-1-1v-7h.382l1.718 3.447a1 1 0 0 0 1.865-.2l1.072-4.288 1.993 7.308A1 1 0 0 0 43 23h.034a1 1 0 0 0 .946-.8l1.341-6.7.75 1.877A1 1 0 0 0 47 18h1.465l1.7 2.555a1 1 0 0 0 1.781-.239l1.236-3.71.92 1.841A1 1 0 0 0 55 19h1z" fill="#062d42" opacity="1" data-original="#062d42"></path></g></g></g></svg>