<svg xmlns="http://www.w3.org/2000/svg" viewBox="0 0 24 24" width="24" height="24"><path fill="#00a8ff" d="M24 4.557a9.83 9.83 0 01-2.828.775 4.932 4.932 0 002.165-2.724c-.951.564-2.005.974-3.127 1.195A4.916 4.916 0 0016.616 3c-2.717 0-4.92 2.206-4.92 4.917 0 .386.044.762.127 1.124C7.728 8.77 4.1 6.797 1.671 3.149c-.423.722-.666 1.561-.666 2.475 0 1.708.87 3.216 2.188 4.099a4.904 4.904 0 01-2.229-.616c-.054 2.281 1.581 4.415 3.949 4.89a4.936 4.936 0 01-2.224.084c.627 1.956 2.444 3.377 4.6 3.417A9.867 9.867 0 010 21.543a13.94 13.94 0 007.548 2.212c9.058 0 14.009-7.513 14.009-14.009 0-.213-.005-.425-.014-.636A10.025 10.025 0 0024 4.557z"/></svg>
